<?xml version="1.0" encoding="UTF-8" standalone="no"?>
<!DOCTYPE svg PUBLIC "-//W3C//DTD SVG 1.0//EN" "http://www.w3.org/TR/2001/PR-SVG-20010719/DTD/svg10.dtd">
<svg width="47cm" height="32cm" viewBox="19 106 933 626" xmlns="http://www.w3.org/2000/svg" xmlns:xlink="http://www.w3.org/1999/xlink">
  <g>
    <rect style="fill: #ffffff" x="500" y="300" width="210.2" height="28"/>
    <rect style="fill: none; fill-opacity:0; stroke-width: 2; stroke: #000000" x="500" y="300" width="210.2" height="28"/>
    <text font-size="16" style="fill: #000000;text-anchor:middle;font-family:sans-serif;font-style:normal;font-weight:normal" x="605.1" y="319">ISubject</text>
    <rect style="fill: #ffffff" x="500" y="328" width="210.2" height="68"/>
    <rect style="fill: none; fill-opacity:0; stroke-width: 2; stroke: #000000" x="500" y="328" width="210.2" height="68"/>
    <text font-size="12.8" style="fill: #000000;text-anchor:start;font-family:monospace;font-style:normal;font-weight:normal" x="503" y="342">+addObserver(IObserver)</text>
    <text font-size="12.8" style="fill: #000000;text-anchor:start;font-family:monospace;font-style:normal;font-weight:normal" x="503" y="358">+removeObserver(IObserver)</text>
    <text font-size="12.8" style="fill: #000000;text-anchor:start;font-family:monospace;font-style:normal;font-weight:normal" x="503" y="374">+signal(IMessage)</text>
    <text font-size="12.8" style="fill: #000000;text-anchor:start;font-family:monospace;font-style:normal;font-weight:normal" x="503" y="390">+deferSignal(IMessage)</text>
  </g>
  <g>
    <rect style="fill: #ffffff" x="740" y="300" width="210.2" height="28"/>
    <rect style="fill: none; fill-opacity:0; stroke-width: 2; stroke: #000000" x="740" y="300" width="210.2" height="28"/>
    <text font-size="16" style="fill: #000000;text-anchor:middle;font-family:sans-serif;font-style:normal;font-weight:normal" x="845.1" y="319">IObserver</text>
    <rect style="fill: #ffffff" x="740" y="328" width="210.2" height="20"/>
    <rect style="fill: none; fill-opacity:0; stroke-width: 2; stroke: #000000" x="740" y="328" width="210.2" height="20"/>
    <text font-size="12.8" style="fill: #000000;text-anchor:start;font-family:monospace;font-style:normal;font-weight:normal" x="743" y="342">+notify(ISubject,IMessage)</text>
  </g>
  <g>
    <rect style="fill: #ffffff" x="263" y="302" width="202.5" height="28"/>
    <rect style="fill: none; fill-opacity:0; stroke-width: 2; stroke: #000000" x="263" y="302" width="202.5" height="28"/>
    <text font-size="16" style="fill: #000000;text-anchor:middle;font-family:sans-serif;font-style:normal;font-weight:normal" x="364.25" y="321">IObject</text>
    <rect style="fill: #ffffff" x="263" y="330" width="202.5" height="84"/>
    <rect style="fill: none; fill-opacity:0; stroke-width: 2; stroke: #000000" x="263" y="330" width="202.5" height="84"/>
    <text font-size="12.8" style="fill: #000000;text-anchor:start;font-family:monospace;font-style:normal;font-weight:normal" x="266" y="344">+getTypeInfo(): ITypeInfo</text>
    <text font-size="12.8" style="fill: #000000;text-anchor:start;font-family:monospace;font-style:normal;font-weight:normal" x="266" y="360">+getProperty()</text>
    <text font-size="12.8" style="fill: #000000;text-anchor:start;font-family:monospace;font-style:normal;font-weight:normal" x="266" y="376">+setProperty()</text>
    <text font-size="12.8" style="fill: #000000;text-anchor:start;font-family:monospace;font-style:normal;font-weight:normal" x="266" y="392">+getPropertyNames()</text>
    <text font-size="12.8" style="fill: #000000;text-anchor:start;font-family:monospace;font-style:normal;font-weight:normal" x="266" y="408">+invokeMethod()</text>
  </g>
  <g>
    <rect style="fill: #ffffff" x="85" y="107" width="164" height="28"/>
    <rect style="fill: none; fill-opacity:0; stroke-width: 2; stroke: #000000" x="85" y="107" width="164" height="28"/>
    <text font-size="16" style="fill: #000000;text-anchor:middle;font-family:sans-serif;font-style:normal;font-weight:normal" x="167" y="126">IUnknown</text>
    <rect style="fill: #ffffff" x="85" y="135" width="164" height="52"/>
    <rect style="fill: none; fill-opacity:0; stroke-width: 2; stroke: #000000" x="85" y="135" width="164" height="52"/>
    <text font-size="12.8" style="fill: #000000;text-anchor:start;font-family:monospace;font-style:normal;font-weight:normal" x="88" y="149">+queryInterface(UID)</text>
    <text font-size="12.8" style="fill: #000000;text-anchor:start;font-family:monospace;font-style:normal;font-weight:normal" x="88" y="165">+retain()</text>
    <text font-size="12.8" style="fill: #000000;text-anchor:start;font-family:monospace;font-style:normal;font-weight:normal" x="88" y="181">+release()</text>
  </g>
  <g>
    <polyline style="fill: none; fill-opacity:0; stroke-width: 2; stroke: #000000" points="267.236,145 364.25,145 364.25,302 "/>
    <polygon style="fill: #ffffff" points="267.236,137 251.236,145 267.236,153 "/>
    <polygon style="fill: none; fill-opacity:0; stroke-width: 2; stroke: #000000" points="267.236,137 251.236,145 267.236,153 "/>
  </g>
  <g>
    <rect style="fill: #ffffff" x="54" y="500" width="225.6" height="28"/>
    <rect style="fill: none; fill-opacity:0; stroke-width: 2; stroke: #000000" x="54" y="500" width="225.6" height="28"/>
    <text font-size="16" style="fill: #000000;text-anchor:middle;font-family:sans-serif;font-style:normal;font-weight:700" x="166.8" y="519">Object</text>
    <rect style="fill: #ffffff" x="54" y="528" width="225.6" height="180"/>
    <rect style="fill: none; fill-opacity:0; stroke-width: 2; stroke: #000000" x="54" y="528" width="225.6" height="180"/>
    <text font-size="12.8" style="fill: #000000;text-anchor:start;font-family:monospace;font-style:normal;font-weight:normal" x="57" y="542">+equals(Object)</text>
    <text font-size="12.8" style="fill: #000000;text-anchor:start;font-family:monospace;font-style:normal;font-weight:normal" x="57" y="558">+compare(Object)</text>
    <text font-size="12.8" style="fill: #000000;text-anchor:start;font-family:monospace;font-style:normal;font-weight:normal" x="57" y="574">+load(Storage)</text>
    <text font-size="12.8" style="fill: #000000;text-anchor:start;font-family:monospace;font-style:normal;font-weight:normal" x="57" y="590">+save(Storage)</text>
    <text font-size="12.8" style="fill: #000000;text-anchor:start;font-family:monospace;font-style:normal;font-weight:normal" x="57" y="606">+save(Storage)</text>
    <text font-size="12.8" style="fill: #000000;text-anchor:start;font-family:monospace;font-style:normal;font-weight:normal" x="57" y="622">+toString(String</text>
    <text font-size="12.8" style="fill: #000000;text-anchor:start;font-family:monospace;font-style:normal;font-weight:normal" x="57" y="638">+getHashCode(): int</text>
    <text font-size="12.8" style="fill: #000000;text-anchor:start;font-family:monospace;font-style:normal;font-weight:normal" x="57" y="654">+asUnknown(): IUnknown</text>
    <text font-size="12.8" style="fill: #000000;text-anchor:start;font-family:monospace;font-style:normal;font-weight:normal" x="57" y="670">+addGarbageCollected(Object)</text>
    <text font-size="12.8" style="fill: #000000;text-anchor:start;font-family:monospace;font-style:normal;font-weight:normal" x="57" y="686">+deferDesctruction(Object)</text>
    <text font-size="12.8" style="fill: #000000;text-anchor:start;font-family:monospace;font-style:normal;font-weight:normal" x="57" y="702">+getModuleAdress(): void*</text>
  </g>
  <g>
    <polyline style="fill: none; fill-opacity:0; stroke-width: 2; stroke-dasharray: 8; stroke: #000000" points="845.1,366.236 845.1,602 279.6,602 "/>
    <polygon style="fill: #ffffff" points="853.1,366.236 845.1,350.236 837.1,366.236 "/>
    <polygon style="fill: none; fill-opacity:0; stroke-width: 2; stroke: #000000" points="853.1,366.236 845.1,350.236 837.1,366.236 "/>
  </g>
  <g>
    <polyline style="fill: none; fill-opacity:0; stroke-width: 2; stroke-dasharray: 8; stroke: #000000" points="605.1,414.236 605.1,602 279.6,602 "/>
    <polygon style="fill: #ffffff" points="613.1,414.236 605.1,398.236 597.1,414.236 "/>
    <polygon style="fill: none; fill-opacity:0; stroke-width: 2; stroke: #000000" points="613.1,414.236 605.1,398.236 597.1,414.236 "/>
  </g>
  <g>
    <polyline style="fill: none; fill-opacity:0; stroke-width: 2; stroke-dasharray: 8; stroke: #000000" points="364.25,432.236 364.25,602 279.6,602 "/>
    <polygon style="fill: #ffffff" points="372.25,432.236 364.25,416.236 356.25,432.236 "/>
    <polygon style="fill: none; fill-opacity:0; stroke-width: 2; stroke: #000000" points="372.25,432.236 364.25,416.236 356.25,432.236 "/>
  </g>
  <g>
    <rect style="fill: #ffffff" x="120" y="300" width="93.65" height="28"/>
    <rect style="fill: none; fill-opacity:0; stroke-width: 2; stroke: #000000" x="120" y="300" width="93.65" height="28"/>
    <text font-size="16" style="fill: #000000;text-anchor:middle;font-family:sans-serif;font-style:normal;font-weight:700" x="166.825" y="319">Unknown</text>
  </g>
  <g>
    <polyline style="fill: none; fill-opacity:0; stroke-width: 2; stroke: #000000" points="166.825,347.243 166.825,422 166.8,422 166.8,498.994 "/>
    <polygon style="fill: #ffffff" points="174.825,347.243 166.825,331.243 158.825,347.243 "/>
    <polygon style="fill: none; fill-opacity:0; stroke-width: 2; stroke: #000000" points="174.825,347.243 166.825,331.243 158.825,347.243 "/>
  </g>
  <g>
    <polyline style="fill: none; fill-opacity:0; stroke-width: 2; stroke-dasharray: 8; stroke: #000000" points="167,205.236 167,250.996 166.825,250.996 166.825,298.993 "/>
    <polygon style="fill: #ffffff" points="175,205.236 167,189.236 159,205.236 "/>
    <polygon style="fill: none; fill-opacity:0; stroke-width: 2; stroke: #000000" points="175,205.236 167,189.236 159,205.236 "/>
  </g>
  <g>
    <polyline style="fill: none; fill-opacity:0; stroke-width: 2; stroke: #000000" points="267.236,145 845.1,145 845.1,300 "/>
    <polygon style="fill: #ffffff" points="267.236,137 251.236,145 267.236,153 "/>
    <polygon style="fill: none; fill-opacity:0; stroke-width: 2; stroke: #000000" points="267.236,137 251.236,145 267.236,153 "/>
  </g>
  <g>
    <polyline style="fill: none; fill-opacity:0; stroke-width: 2; stroke: #000000" points="267.236,145 604,145 604,300 605.1,300 "/>
    <polygon style="fill: #ffffff" points="267.236,137 251.236,145 267.236,153 "/>
    <polygon style="fill: none; fill-opacity:0; stroke-width: 2; stroke: #000000" points="267.236,137 251.236,145 267.236,153 "/>
  </g>
  <g>
    <polygon style="fill: #ffffff" points="640,240 769.2,240 781.2,252 781.2,274 640,274 "/>
    <polygon style="fill: none; fill-opacity:0; stroke-width: 2; stroke: #000000" points="640,240 769.2,240 781.2,252 781.2,274 640,274 "/>
    <polyline style="fill: none; fill-opacity:0; stroke-width: 1; stroke: #000000" points="769.2,240 769.2,252 781.2,252 "/>
    <text font-size="12.8" style="fill: #000000;text-anchor:start;font-family:monospace;font-style:normal;font-weight:normal" x="647" y="264.9">
      <tspan x="647" y="264.9">Observer Pattern</tspan>
    </text>
  </g>
  <g>
    <polygon style="fill: #ffffff" points="292,649 398.1,649 410.1,661 410.1,731 292,731 "/>
    <polygon style="fill: none; fill-opacity:0; stroke-width: 2; stroke: #000000" points="292,649 398.1,649 410.1,661 410.1,731 292,731 "/>
    <polyline style="fill: none; fill-opacity:0; stroke-width: 1; stroke: #000000" points="398.1,649 398.1,661 410.1,661 "/>
    <text font-size="12.8" style="fill: #000000;text-anchor:start;font-family:monospace;font-style:normal;font-weight:normal" x="299" y="673.9">
      <tspan x="299" y="673.9">RTTI</tspan>
      <tspan x="299" y="689.9">Equal/Compare</tspan>
      <tspan x="299" y="705.9">Load/Save</tspan>
      <tspan x="299" y="721.9">Scripting</tspan>
    </text>
  </g>
  <g>
    <polygon style="fill: #ffffff" points="20,200 118.4,200 130.4,212 130.4,250 20,250 "/>
    <polygon style="fill: none; fill-opacity:0; stroke-width: 2; stroke: #000000" points="20,200 118.4,200 130.4,212 130.4,250 20,250 "/>
    <polyline style="fill: none; fill-opacity:0; stroke-width: 1; stroke: #000000" points="118.4,200 118.4,212 130.4,212 "/>
    <text font-size="12.8" style="fill: #000000;text-anchor:start;font-family:monospace;font-style:normal;font-weight:normal" x="27" y="224.9">
      <tspan x="27" y="224.9">ref count +1</tspan>
      <tspan x="27" y="240.9">ref count -1</tspan>
    </text>
  </g>
</svg>
