<?xml version="1.0" encoding="UTF-8" standalone="no"?>
<!DOCTYPE svg PUBLIC "-//W3C//DTD SVG 1.0//EN" "http://www.w3.org/TR/2001/PR-SVG-20010719/DTD/svg10.dtd">
<svg width="57cm" height="40cm" viewBox="-461 -221 1122 782" xmlns="http://www.w3.org/2000/svg" xmlns:xlink="http://www.w3.org/1999/xlink">
  <g>
    <rect style="fill: #ffffff" x="280" y="-200" width="380" height="540"/>
    <rect style="fill: none; fill-opacity:0; stroke-width: 2; stroke: #000000" x="280" y="-200" width="380" height="540"/>
    <rect style="fill: #ffffff" x="280" y="-220" width="50.2" height="20"/>
    <rect style="fill: none; fill-opacity:0; stroke-width: 2; stroke: #000000" x="280" y="-220" width="50.2" height="20"/>
    <text font-size="12.7998" style="fill: #000000;text-anchor:start;font-family:monospace;font-style:normal;font-weight:normal" x="282" y="-205">cclapp</text>
  </g>
  <g>
    <rect style="fill: #ffffff" x="-460" y="-200" width="720" height="760"/>
    <rect style="fill: none; fill-opacity:0; stroke-width: 2; stroke: #000000" x="-460" y="-200" width="720" height="760"/>
    <rect style="fill: #ffffff" x="-460" y="-220" width="50.2" height="20"/>
    <rect style="fill: none; fill-opacity:0; stroke-width: 2; stroke: #000000" x="-460" y="-220" width="50.2" height="20"/>
    <text font-size="12.7998" style="fill: #000000;text-anchor:start;font-family:monospace;font-style:normal;font-weight:normal" x="-458" y="-205">cclgui</text>
  </g>
  <g>
    <rect style="fill: #ffffff" x="-340" y="-80" width="271.8" height="28"/>
    <rect style="fill: none; fill-opacity:0; stroke-width: 2; stroke: #000000" x="-340" y="-80" width="271.8" height="28"/>
    <text font-size="16" style="fill: #000000;text-anchor:middle;font-family:sans-serif;font-style:normal;font-weight:normal" x="-204.1" y="-61">IView</text>
    <rect style="fill: #ffffff" x="-340" y="-52" width="271.8" height="20"/>
    <rect style="fill: none; fill-opacity:0; stroke-width: 2; stroke: #000000" x="-340" y="-52" width="271.8" height="20"/>
    <text font-size="12.8" style="fill: #000000;text-anchor:start;font-family:monospace;font-style:normal;font-weight:normal" x="-337" y="-38">+setViewAttribute(Variant</text>
  </g>
  <g>
    <rect style="fill: #ffffff" x="-200" y="120" width="117.8" height="28"/>
    <rect style="fill: none; fill-opacity:0; stroke-width: 2; stroke: #000000" x="-200" y="120" width="117.8" height="28"/>
    <text font-size="16" style="fill: #000000;text-anchor:middle;font-family:sans-serif;font-style:normal;font-weight:700" x="-141.1" y="139">View</text>
    <rect style="fill: #ffffff" x="-200" y="148" width="117.8" height="52"/>
    <rect style="fill: none; fill-opacity:0; stroke-width: 2; stroke: #000000" x="-200" y="148" width="117.8" height="52"/>
    <text font-size="12.8" style="fill: #000000;text-anchor:start;font-family:monospace;font-style:normal;font-weight:normal" x="-197" y="162">+draw()</text>
    <text font-size="12.8" style="fill: #000000;text-anchor:start;font-family:monospace;font-style:normal;font-weight:normal" x="-197" y="178">+onMouseDown()</text>
    <text font-size="12.8" style="fill: #000000;text-anchor:start;font-family:monospace;font-style:normal;font-weight:normal" x="-197" y="194">+onKeyDown()</text>
  </g>
  <g>
    <polyline style="fill: none; fill-opacity:0; stroke-width: 2; stroke-dasharray: 8; stroke: #000000" points="-204.1,-12.7578 -204.1,52.0005 -141.1,52.0005 -141.1,118.995 "/>
    <polygon style="fill: #ffffff" points="-196.1,-12.7578 -204.1,-28.7578 -212.1,-12.7578 "/>
    <polygon style="fill: none; fill-opacity:0; stroke-width: 2; stroke: #000000" points="-196.1,-12.7578 -204.1,-28.7578 -212.1,-12.7578 "/>
  </g>
  <g>
    <rect style="fill: #ffffff" x="-280" y="400" width="76.2" height="28"/>
    <rect style="fill: none; fill-opacity:0; stroke-width: 2; stroke: #000000" x="-280" y="400" width="76.2" height="28"/>
    <text font-size="16" style="fill: #000000;text-anchor:middle;font-family:sans-serif;font-style:normal;font-weight:700" x="-241.9" y="419">Control</text>
  </g>
  <g>
    <rect style="fill: #ffffff" x="-360" y="500" width="71.3" height="28"/>
    <rect style="fill: none; fill-opacity:0; stroke-width: 2; stroke: #000000" x="-360" y="500" width="71.3" height="28"/>
    <text font-size="16" style="fill: #000000;text-anchor:middle;font-family:sans-serif;font-style:normal;font-weight:700" x="-324.35" y="519">Button</text>
    <rect style="fill: #ffffff" x="-360" y="528" width="71.3" height="20"/>
    <rect style="fill: none; fill-opacity:0; stroke-width: 2; stroke: #000000" x="-360" y="528" width="71.3" height="20"/>
    <text font-size="12.8" style="fill: #000000;text-anchor:start;font-family:monospace;font-style:normal;font-weight:normal" x="-357" y="542">+push()</text>
  </g>
  <g>
    <rect style="fill: #ffffff" x="-120" y="400" width="81.8" height="28"/>
    <rect style="fill: none; fill-opacity:0; stroke-width: 2; stroke: #000000" x="-120" y="400" width="81.8" height="28"/>
    <text font-size="16" style="fill: #000000;text-anchor:middle;font-family:sans-serif;font-style:normal;font-weight:700" x="-79.1" y="419">Window</text>
  </g>
  <g>
    <rect style="fill: #ffffff" x="0" y="200" width="233.3" height="28"/>
    <rect style="fill: none; fill-opacity:0; stroke-width: 2; stroke: #000000" x="0" y="200" width="233.3" height="28"/>
    <text font-size="16" style="fill: #000000;text-anchor:middle;font-family:sans-serif;font-style:normal;font-weight:700" x="116.65" y="219">UserControlHost</text>
    <rect style="fill: #ffffff" x="0" y="228" width="233.3" height="20"/>
    <rect style="fill: none; fill-opacity:0; stroke-width: 2; stroke: #000000" x="0" y="228" width="233.3" height="20"/>
    <text font-size="12.8" style="fill: #000000;text-anchor:start;font-family:monospace;font-style:normal;font-weight:normal" x="3" y="242">+setUserControl(IUserControl)</text>
  </g>
  <g>
    <polyline style="fill: none; fill-opacity:0; stroke-width: 2; stroke: #000000" points="-62.9566,160 -33.0999,160 -33.0999,224 -1.00718,224 "/>
    <polygon style="fill: #ffffff" points="-62.9566,152 -78.9566,160 -62.9566,168 "/>
    <polygon style="fill: none; fill-opacity:0; stroke-width: 2; stroke: #000000" points="-62.9566,152 -78.9566,160 -62.9566,168 "/>
  </g>
  <g>
    <polyline style="fill: none; fill-opacity:0; stroke-width: 2; stroke: #000000" points="-141.1,219.241 -141.1,307.999 -79.1,307.999 -79.1,398.993 "/>
    <polygon style="fill: #ffffff" points="-133.1,219.241 -141.1,203.241 -149.1,219.241 "/>
    <polygon style="fill: none; fill-opacity:0; stroke-width: 2; stroke: #000000" points="-133.1,219.241 -141.1,203.241 -149.1,219.241 "/>
  </g>
  <g>
    <polyline style="fill: none; fill-opacity:0; stroke-width: 2; stroke: #000000" points="-141.1,219.241 -141.1,307.999 -241.9,307.999 -241.9,398.993 "/>
    <polygon style="fill: #ffffff" points="-133.1,219.241 -141.1,203.241 -149.1,219.241 "/>
    <polygon style="fill: none; fill-opacity:0; stroke-width: 2; stroke: #000000" points="-133.1,219.241 -141.1,203.241 -149.1,219.241 "/>
  </g>
  <g>
    <polyline style="fill: none; fill-opacity:0; stroke-width: 2; stroke: #000000" points="-241.9,447.243 -241.9,472.001 -324.35,472.001 -324.35,498.994 "/>
    <polygon style="fill: #ffffff" points="-233.9,447.243 -241.9,431.243 -249.9,447.243 "/>
    <polygon style="fill: none; fill-opacity:0; stroke-width: 2; stroke: #000000" points="-233.9,447.243 -241.9,431.243 -249.9,447.243 "/>
  </g>
  <g>
    <rect style="fill: #ffffff" x="0" y="-20" width="179.4" height="28"/>
    <rect style="fill: none; fill-opacity:0; stroke-width: 2; stroke: #000000" x="0" y="-20" width="179.4" height="28"/>
    <text font-size="16" style="fill: #000000;text-anchor:middle;font-family:sans-serif;font-style:normal;font-weight:normal" x="89.7" y="-1">IUserControl</text>
    <rect style="fill: #ffffff" x="0" y="8" width="179.4" height="20"/>
    <rect style="fill: none; fill-opacity:0; stroke-width: 2; stroke: #000000" x="0" y="8" width="179.4" height="20"/>
    <text font-size="12.8" style="fill: #000000;text-anchor:start;font-family:monospace;font-style:normal;font-weight:normal" x="3" y="22">+onViewEvent(GUIEvent)</text>
  </g>
  <g>
    <rect style="fill: #ffffff" x="400" y="100" width="194.8" height="28"/>
    <rect style="fill: none; fill-opacity:0; stroke-width: 2; stroke: #000000" x="400" y="100" width="194.8" height="28"/>
    <text font-size="16" style="fill: #000000;text-anchor:middle;font-family:sans-serif;font-style:normal;font-weight:700" x="497.4" y="119">UserControl</text>
    <rect style="fill: #ffffff" x="400" y="128" width="194.8" height="36"/>
    <rect style="fill: none; fill-opacity:0; stroke-width: 2; stroke: #000000" x="400" y="128" width="194.8" height="36"/>
    <text font-size="12.8" style="fill: #000000;text-anchor:start;font-family:monospace;font-style:normal;font-weight:normal" x="403" y="142">+draw(DrawEvent)</text>
    <text font-size="12.8" style="fill: #000000;text-anchor:start;font-family:monospace;font-style:normal;font-weight:normal" x="403" y="158">+onMouseDown(MouseEvent)</text>
  </g>
  <g>
    <rect style="fill: #ffffff" x="380" y="-120" width="87.05" height="28"/>
    <rect style="fill: none; fill-opacity:0; stroke-width: 2; stroke: #000000" x="380" y="-120" width="87.05" height="28"/>
    <text font-size="16" style="fill: #000000;text-anchor:middle;font-family:sans-serif;font-style:normal;font-weight:700" x="423.525" y="-101">ViewBox</text>
  </g>
  <g>
    <rect style="fill: #ffffff" x="300" y="260" width="170.5" height="28"/>
    <rect style="fill: none; fill-opacity:0; stroke-width: 2; stroke: #000000" x="300" y="260" width="170.5" height="28"/>
    <text font-size="16" style="fill: #000000;text-anchor:middle;font-family:sans-serif;font-style:normal;font-weight:700" x="385.25" y="279">MyCustomControl</text>
  </g>
  <g>
    <rect style="fill: #ffffff" x="520" y="260" width="89.1" height="28"/>
    <rect style="fill: none; fill-opacity:0; stroke-width: 2; stroke: #000000" x="520" y="260" width="89.1" height="28"/>
    <text font-size="16" style="fill: #000000;text-anchor:middle;font-family:sans-serif;font-style:normal;font-weight:700" x="564.55" y="279">EditView</text>
  </g>
  <g>
    <polyline style="fill: none; fill-opacity:0; stroke-width: 2; stroke-dasharray: 8; stroke: #000000" points="198.642,4 197.406,4 357.994,4 358.994,4 "/>
    <polygon style="fill: #ffffff" points="198.642,-4 182.642,4 198.642,12 "/>
    <polygon style="fill: none; fill-opacity:0; stroke-width: 2; stroke: #000000" points="198.642,-4 182.642,4 198.642,12 "/>
  </g>
  <g>
    <polyline style="fill: none; fill-opacity:0; stroke-width: 2; stroke: #000000" points="497.4,183.244 497.4,220 385.25,220 385.25,258.993 "/>
    <polygon style="fill: #ffffff" points="505.4,183.244 497.4,167.244 489.4,183.244 "/>
    <polygon style="fill: none; fill-opacity:0; stroke-width: 2; stroke: #000000" points="505.4,183.244 497.4,167.244 489.4,183.244 "/>
  </g>
  <g>
    <polyline style="fill: none; fill-opacity:0; stroke-width: 2; stroke: #000000" points="423.525,-72.7566 423.525,-47.9994 449.7,-47.9994 449.7,-21.0061 "/>
    <polygon style="fill: #ffffff" points="431.525,-72.7566 423.525,-88.7566 415.525,-72.7566 "/>
    <polygon style="fill: none; fill-opacity:0; stroke-width: 2; stroke: #000000" points="431.525,-72.7566 423.525,-88.7566 415.525,-72.7566 "/>
  </g>
  <g>
    <polyline style="fill: none; fill-opacity:0; stroke-width: 2; stroke: #000000" points="497.4,183.244 497.4,220 564.55,220 564.55,258.993 "/>
    <polygon style="fill: #ffffff" points="505.4,183.244 497.4,167.244 489.4,183.244 "/>
    <polygon style="fill: none; fill-opacity:0; stroke-width: 2; stroke: #000000" points="505.4,183.244 497.4,167.244 489.4,183.244 "/>
  </g>
  <g>
    <polygon style="fill: #ffffff" points="-320,-180 -206.2,-180 -194.2,-168 -194.2,-114 -320,-114 "/>
    <polygon style="fill: none; fill-opacity:0; stroke-width: 2; stroke: #000000" points="-320,-180 -206.2,-180 -194.2,-168 -194.2,-114 -320,-114 "/>
    <polyline style="fill: none; fill-opacity:0; stroke-width: 1; stroke: #000000" points="-206.2,-180 -206.2,-168 -194.2,-168 "/>
    <text font-size="12.8" style="fill: #000000;text-anchor:start;font-family:monospace;font-style:normal;font-weight:normal" x="-313" y="-155.1">
      <tspan x="-313" y="-155.1">ViewAttributes</tspan>
      <tspan x="-313" y="-139.1">SizeModes</tspan>
      <tspan x="-313" y="-123.1">MouseStates</tspan>
    </text>
  </g>
  <line style="fill: none; fill-opacity:0; stroke-width: 2; stroke: #000000" x1="-237.296" y1="-112.997" x2="-218.657" y2="-80.9939"/>
  <g>
    <polyline style="fill: none; fill-opacity:0; stroke-width: 2; stroke: #000000" points="-141.1,119.023 -141.1,80 -260,80 -260,160 -200.782,160 "/>
    <text font-size="12.7998" style="fill: #000000;text-anchor:middle;font-family:monospace;font-style:normal;font-weight:normal" x="-200.55" y="77"></text>
    <polygon style="fill: #000000" points="-198.55,77 -198.55,69 -190.55,73 "/>
    <text font-size="12.7998" style="fill: #000000;text-anchor:start;font-family:monospace;font-style:normal;font-weight:normal" x="-137.1" y="99.0234"> parent</text>
    <text font-size="12.7998" style="fill: #000000;text-anchor:start;font-family:monospace;font-style:normal;font-weight:normal" x="-137.1" y="115.023"></text>
    <text font-size="12.7998" style="fill: #000000;text-anchor:end;font-family:monospace;font-style:normal;font-weight:normal" x="-204.782" y="157"> child</text>
    <text font-size="12.7998" style="fill: #000000;text-anchor:end;font-family:monospace;font-style:normal;font-weight:normal" x="-204.782" y="173"></text>
  </g>
  <g>
    <rect style="fill: #ffffff" x="-440" y="200" width="210.2" height="28"/>
    <rect style="fill: none; fill-opacity:0; stroke-width: 2; stroke: #000000" x="-440" y="200" width="210.2" height="28"/>
    <text font-size="16" style="fill: #000000;text-anchor:middle;font-family:sans-serif;font-style:normal;font-weight:normal" x="-334.9" y="219">IControl</text>
    <rect style="fill: #ffffff" x="-440" y="228" width="210.2" height="36"/>
    <rect style="fill: none; fill-opacity:0; stroke-width: 2; stroke: #000000" x="-440" y="228" width="210.2" height="36"/>
    <text font-size="12.8" style="fill: #000000;text-anchor:start;font-family:monospace;font-style:normal;font-weight:normal" x="-437" y="242">+getParameter()</text>
    <text font-size="12.8" style="fill: #000000;text-anchor:start;font-family:monospace;font-style:normal;font-weight:normal" x="-437" y="258">+setParameter(IParameter*)</text>
  </g>
  <g>
    <polyline style="fill: none; fill-opacity:0; stroke-width: 2; stroke-dasharray: 8; stroke: #000000" points="-334.9,283.244 -334.9,340 -241.9,340 -241.9,398.993 "/>
    <polygon style="fill: #ffffff" points="-326.9,283.244 -334.9,267.244 -342.9,283.244 "/>
    <polygon style="fill: none; fill-opacity:0; stroke-width: 2; stroke: #000000" points="-326.9,283.244 -334.9,267.244 -342.9,283.244 "/>
  </g>
  <g>
    <rect style="fill: #ffffff" x="0" y="380" width="210.2" height="28"/>
    <rect style="fill: none; fill-opacity:0; stroke-width: 2; stroke: #000000" x="0" y="380" width="210.2" height="28"/>
    <text font-size="16" style="fill: #000000;text-anchor:middle;font-family:sans-serif;font-style:normal;font-weight:normal" x="105.1" y="399">IWindow</text>
    <rect style="fill: #ffffff" x="0" y="408" width="210.2" height="36"/>
    <rect style="fill: none; fill-opacity:0; stroke-width: 2; stroke: #000000" x="0" y="408" width="210.2" height="36"/>
    <text font-size="12.8" style="fill: #000000;text-anchor:start;font-family:monospace;font-style:normal;font-weight:normal" x="3" y="422">+setWindowTitle(StringRef)</text>
    <text font-size="12.8" style="fill: #000000;text-anchor:start;font-family:monospace;font-style:normal;font-weight:normal" x="3" y="438">+setFullscreen(tbool)</text>
  </g>
  <g>
    <polyline style="fill: none; fill-opacity:0; stroke-width: 2; stroke-dasharray: 8; stroke: #000000" points="105.1,463.244 105.1,482.008 -79.1,482.008 -79.1,429.007 "/>
    <polygon style="fill: #ffffff" points="113.1,463.244 105.1,447.244 97.1,463.244 "/>
    <polygon style="fill: none; fill-opacity:0; stroke-width: 2; stroke: #000000" points="113.1,463.244 105.1,447.244 97.1,463.244 "/>
  </g>
  <g>
    <polyline style="fill: none; fill-opacity:0; stroke-width: 2; stroke-dasharray: 8; stroke: #000000" points="116.65,198.994 116.65,118 89.7,118 89.7,35.7113 "/>
    <polyline style="fill: none; fill-opacity:0; stroke-width: 2; stroke: #000000" points="94.7,48.3587 89.7,32.3587 84.7,48.3587 "/>
  </g>
  <g>
    <rect style="fill: #ffffff" x="360" y="-20" width="179.4" height="28"/>
    <rect style="fill: none; fill-opacity:0; stroke-width: 2; stroke: #000000" x="360" y="-20" width="179.4" height="28"/>
    <text font-size="16" style="fill: #000000;text-anchor:middle;font-family:sans-serif;font-style:normal;font-weight:normal" x="449.7" y="-1">AbstractUserControl</text>
    <rect style="fill: #ffffff" x="360" y="8" width="179.4" height="20"/>
    <rect style="fill: none; fill-opacity:0; stroke-width: 2; stroke: #000000" x="360" y="8" width="179.4" height="20"/>
    <text font-size="12.8" style="fill: #000000;text-anchor:start;font-family:monospace;font-style:normal;font-weight:normal" x="363" y="22">+onViewEvent(GUIEvent)</text>
  </g>
  <g>
    <polyline style="fill: none; fill-opacity:0; stroke-width: 2; stroke: #000000" points="449.7,47.2422 449.7,71.999 497.4,71.999 497.4,98.9919 "/>
    <polygon style="fill: #ffffff" points="457.7,47.2422 449.7,31.2422 441.7,47.2422 "/>
    <polygon style="fill: none; fill-opacity:0; stroke-width: 2; stroke: #000000" points="457.7,47.2422 449.7,31.2422 441.7,47.2422 "/>
  </g>
  <g>
    <polygon style="fill: #ffffff" points="460,-180 596.9,-180 608.9,-168 608.9,-146 460,-146 "/>
    <polygon style="fill: none; fill-opacity:0; stroke-width: 2; stroke: #000000" points="460,-180 596.9,-180 608.9,-168 608.9,-146 460,-146 "/>
    <polyline style="fill: none; fill-opacity:0; stroke-width: 1; stroke: #000000" points="596.9,-180 596.9,-168 608.9,-168 "/>
    <text font-size="12.8" style="fill: #000000;text-anchor:start;font-family:monospace;font-style:normal;font-weight:normal" x="467" y="-155.1">
      <tspan x="467" y="-155.1">"box around view"</tspan>
    </text>
  </g>
  <line style="fill: none; fill-opacity:0; stroke-width: 2; stroke: #000000" x1="499.434" y1="-145.007" x2="452.692" y2="-120.988"/>
</svg>
