<?xml version="1.0" encoding="UTF-8" standalone="no"?>
<!DOCTYPE svg PUBLIC "-//W3C//DTD SVG 1.1//EN" "http://www.w3.org/Graphics/SVG/1.1/DTD/svg11.dtd">
<svg width="100%" height="100%" viewBox="0 0 1024 1024" version="1.1" xmlns="http://www.w3.org/2000/svg" xmlns:xlink="http://www.w3.org/1999/xlink" xml:space="preserve" xmlns:serif="http://www.serif.com/" style="fill-rule:evenodd;clip-rule:evenodd;stroke-linejoin:round;stroke-miterlimit:1.41421;">
    <g>
        <g id="Installer" transform="matrix(1.17327,0,0,1.16603,-88.7122,-151.587)">
            <g>
                <g transform="matrix(1,0,0,1,-51,-117.539)">
                    <path d="M524.658,290.137C548.404,276.427 577.596,276.427 601.342,290.137C695.931,344.748 932.793,481.5 932.793,481.5L932.793,858.5L563,1072L193.207,858.5L193.207,481.5C193.207,481.5 430.069,344.748 524.658,290.137Z" style="fill:rgb(53,53,53);"/>
                </g>
                <path d="M819.362,370.677C822.068,369.085 823.72,366.158 823.694,363.005C823.667,359.851 821.965,356.953 819.232,355.408C801.177,345.203 771.142,328.224 771.142,328.224L767.132,325.406C766.005,324.224 764.756,323.147 763.749,321.86C756.688,312.828 756.982,298.879 764.498,290.149C766.641,287.661 769.252,285.619 772.183,284.141C776.104,282.162 777.318,282.274 781.582,281.53C783.215,281.569 784.848,281.607 786.481,281.646C791.256,282.713 791.271,282.719 795.746,284.697L893.83,340.141C897.03,342.342 898.032,342.72 900.577,345.714C903.416,349.055 905.363,353.166 906.139,357.511C906.268,358.235 906.333,358.968 906.382,359.702C906.662,361.695 906.716,363.718 906.53,365.718L906.793,740.195C906.459,744.036 906.622,745.085 905.289,748.752C903.792,752.87 901.198,756.564 897.865,759.361C896.751,760.296 895.483,761.029 894.293,761.863L524.5,975.363C521.007,976.991 520.18,977.655 516.341,978.332C512.058,979.088 507.564,978.702 503.449,977.204C502.085,976.708 500.816,975.977 499.5,975.363L129.707,761.863C126.55,759.652 125.562,759.268 123.056,756.282C120.241,752.927 118.342,748.836 117.587,744.553C117.335,743.123 117.334,741.659 117.207,740.212L117.207,363.212C117.289,362.276 117.399,361.341 117.541,360.414C118.05,355.248 120.06,350.235 123.545,346.326C125.901,343.683 128.837,341.619 132.063,340.211L228.545,284.909C231.531,283.568 234.557,282.218 237.791,281.803C252.315,279.937 266.974,292.937 265.918,308.312C265.468,314.863 262.352,321.133 257.402,325.446C256.17,326.52 254.74,327.341 253.409,328.289C253.409,328.289 223.365,345.51 205.378,355.819C202.662,357.376 200.979,360.272 200.961,363.416C200.944,366.561 202.595,369.475 205.293,371.062C255.515,400.601 436.022,506.769 493.961,540.847C505.105,547.402 518.895,547.402 530.039,540.847C588.045,506.73 768.927,400.341 819.362,370.677ZM487,605.24C487,598.75 483.577,592.747 478.008,589.471C432.994,562.996 232.224,444.91 179.776,414.061C177.192,412.542 173.999,412.529 171.403,414.027C168.808,415.525 167.207,418.306 167.207,421.317L167.207,715.2C167.207,721.743 170.685,727.787 176.326,731.043C220.39,756.484 411.535,866.841 469.968,900.577C473.487,902.609 477.816,902.6 481.327,900.554C484.838,898.508 487,894.735 487,890.652L487,605.24ZM545.992,589.471C540.423,592.747 537,598.75 537,605.24C537,650.602 537,830.442 537,890.652C537,894.735 539.162,898.508 542.673,900.554C546.184,902.6 550.513,902.609 554.032,900.577C612.46,866.844 803.579,756.501 847.657,731.053C853.301,727.794 856.78,721.745 856.775,715.198C856.742,667.935 856.608,476.156 856.569,421.443C856.567,418.433 854.966,415.654 852.371,414.157C849.776,412.66 846.583,412.674 844.001,414.192C791.595,445.016 590.986,563.007 545.992,589.471Z" style="fill:rgb(0,170,255);fill-rule:nonzero;stroke:rgb(0,148,241);stroke-width:3.42px;"/>
                <g id="OnOffWIKIPEDIASVG" transform="matrix(0.386592,0,0,0.277665,312.435,210.992)">
                    <path d="M511.806,894.233C277.939,894.233 87.673,704.144 87.673,470.488C87.673,365.622 126.398,264.847 196.711,186.72C223.497,156.954 269.365,154.523 299.159,181.289C328.948,208.053 331.383,253.879 304.595,283.643C258.271,335.112 232.758,401.468 232.758,470.488C232.758,624.217 357.939,749.281 511.806,749.281C665.675,749.281 790.853,624.217 790.853,470.488C790.853,401.471 765.341,335.115 719.015,283.641C692.227,253.876 694.664,208.051 724.455,181.289C754.256,154.522 800.11,156.961 826.903,186.723C897.216,264.849 935.938,365.627 935.938,470.488C935.938,704.144 745.675,894.233 511.806,894.233ZM512.29,542.964C472.226,542.964 439.747,510.515 439.747,470.488L439.747,201.131C439.747,161.104 472.226,128.655 512.29,128.655C552.356,128.655 584.835,161.104 584.835,201.131L584.835,470.488C584.835,510.515 552.356,542.964 512.29,542.964Z" style="fill:white;fill-rule:nonzero;"/>
                </g>
            </g>
            <g>
                <g transform="matrix(1,0,0,1,-51,-117.539)">
                    <path d="M524.658,290.137C548.404,276.427 577.596,276.427 601.342,290.137C695.931,344.748 932.793,481.5 932.793,481.5L932.793,858.5L563,1072L193.207,858.5L193.207,481.5C193.207,481.5 430.069,344.748 524.658,290.137Z" style="fill:rgb(53,53,53);"/>
                </g>
                <path d="M819.362,370.677C822.068,369.085 823.72,366.158 823.694,363.005C823.667,359.851 821.965,356.953 819.232,355.408C801.177,345.203 771.142,328.224 771.142,328.224L767.132,325.406C766.005,324.224 764.756,323.147 763.749,321.86C756.688,312.828 756.982,298.879 764.498,290.149C766.641,287.661 769.252,285.619 772.183,284.141C776.104,282.162 777.318,282.274 781.582,281.53C783.215,281.569 784.848,281.607 786.481,281.646C791.256,282.713 791.271,282.719 795.746,284.697L893.83,340.141C897.03,342.342 898.032,342.72 900.577,345.714C903.416,349.055 905.363,353.166 906.139,357.511C906.268,358.235 906.333,358.968 906.382,359.702C906.662,361.695 906.716,363.718 906.53,365.718L906.793,740.195C906.459,744.036 906.622,745.085 905.289,748.752C903.792,752.87 901.198,756.564 897.865,759.361C896.751,760.296 895.483,761.029 894.293,761.863L524.5,975.363C521.007,976.991 520.18,977.655 516.341,978.332C512.058,979.088 507.564,978.702 503.449,977.204C502.085,976.708 500.816,975.977 499.5,975.363L129.707,761.863C126.55,759.652 125.562,759.268 123.056,756.282C120.241,752.927 118.342,748.836 117.587,744.553C117.335,743.123 117.334,741.659 117.207,740.212L117.207,363.212C117.289,362.276 117.399,361.341 117.541,360.414C118.05,355.248 120.06,350.235 123.545,346.326C125.901,343.683 128.837,341.619 132.063,340.211L228.545,284.909C231.531,283.568 234.557,282.218 237.791,281.803C252.315,279.937 266.974,292.937 265.918,308.312C265.468,314.863 262.352,321.133 257.402,325.446C256.17,326.52 254.74,327.341 253.409,328.289C253.409,328.289 223.365,345.51 205.378,355.819C202.662,357.376 200.979,360.272 200.961,363.416C200.944,366.561 202.595,369.475 205.293,371.062C255.515,400.601 436.022,506.769 493.961,540.847C505.105,547.402 518.895,547.402 530.039,540.847C588.045,506.73 768.927,400.341 819.362,370.677ZM487,605.24C487,598.75 483.577,592.747 478.008,589.471C432.994,562.996 232.224,444.91 179.776,414.061C177.192,412.542 173.999,412.529 171.403,414.027C168.808,415.525 167.207,418.306 167.207,421.317L167.207,715.2C167.207,721.743 170.685,727.787 176.326,731.043C220.39,756.484 411.535,866.841 469.968,900.577C473.487,902.609 477.816,902.6 481.327,900.554C484.838,898.508 487,894.735 487,890.652L487,605.24ZM545.992,589.471C540.423,592.747 537,598.75 537,605.24C537,650.602 537,830.442 537,890.652C537,894.735 539.162,898.508 542.673,900.554C546.184,902.6 550.513,902.609 554.032,900.577C612.46,866.844 803.579,756.501 847.657,731.053C853.301,727.794 856.78,721.745 856.775,715.198C856.742,667.935 856.608,476.156 856.569,421.443C856.567,418.433 854.966,415.654 852.371,414.157C849.776,412.66 846.583,412.674 844.001,414.192C791.595,445.016 590.986,563.007 545.992,589.471Z" style="fill:rgb(0,170,255);fill-rule:nonzero;stroke:rgb(0,148,241);stroke-width:3.42px;"/>
                <g id="OnOffWIKIPEDIASVG1" serif:id="OnOffWIKIPEDIASVG" transform="matrix(0.386592,0,0,0.277665,312.435,210.992)">
                    <path d="M511.806,894.233C277.939,894.233 87.673,704.144 87.673,470.488C87.673,365.622 126.398,264.847 196.711,186.72C223.497,156.954 269.365,154.523 299.159,181.289C328.948,208.053 331.383,253.879 304.595,283.643C258.271,335.112 232.758,401.468 232.758,470.488C232.758,624.217 357.939,749.281 511.806,749.281C665.675,749.281 790.853,624.217 790.853,470.488C790.853,401.471 765.341,335.115 719.015,283.641C692.227,253.876 694.664,208.051 724.455,181.289C754.256,154.522 800.11,156.961 826.903,186.723C897.216,264.849 935.938,365.627 935.938,470.488C935.938,704.144 745.675,894.233 511.806,894.233ZM512.29,542.964C472.226,542.964 439.747,510.515 439.747,470.488L439.747,201.131C439.747,161.104 472.226,128.655 512.29,128.655C552.356,128.655 584.835,161.104 584.835,201.131L584.835,470.488C584.835,510.515 552.356,542.964 512.29,542.964Z" style="fill:white;fill-rule:nonzero;"/>
                </g>
            </g>
        </g>
    </g>
    <g id="OFF">
    </g>
</svg>
