<?xml version="1.0" encoding="UTF-8" standalone="no"?>
<!DOCTYPE svg PUBLIC "-//W3C//DTD SVG 1.1//EN" "http://www.w3.org/Graphics/SVG/1.1/DTD/svg11.dtd">
<svg width="100%" height="100%" viewBox="0 0 40 40" version="1.1" xmlns="http://www.w3.org/2000/svg" xmlns:xlink="http://www.w3.org/1999/xlink" xml:space="preserve" xmlns:serif="http://www.serif.com/" style="fill-rule:evenodd;clip-rule:evenodd;stroke-linejoin:round;stroke-miterlimit:2;">
    <g transform="matrix(0.45553,0.0001336,-0.000133928,0.456648,9.52028,15.3829)">
        <path d="M43.113,-8.484C43.705,-7.905 44.039,-7.111 44.039,-6.283C44.039,-5.46 43.58,-4.776 43.124,-4.093C39.034,2.037 24.51,23.906 21.342,28.946C20.671,30.013 18.985,29.824 18.08,28.947C13.938,24.907 7.63,18.934 2.904,14.325C2.31,13.75 1.974,12.957 1.974,12.13C1.974,11.311 2.304,10.525 2.888,9.951C4.122,8.744 6.119,8.738 7.36,9.938C11.3,13.772 14.694,16.823 18.077,20.115C18.931,20.94 19.799,21.128 20.416,20.114C22.947,15.949 35.071,-2.76 38.649,-8.466C39.564,-9.925 41.872,-9.684 43.104,-8.479L43.113,-8.484Z" style="fill:rgb(242,13,13);"/>
    </g>
</svg>
