<?xml version="1.0" encoding="UTF-8" standalone="no"?>
<!DOCTYPE svg PUBLIC "-//W3C//DTD SVG 1.1//EN" "http://www.w3.org/Graphics/SVG/1.1/DTD/svg11.dtd">
<svg width="100%" height="100%" viewBox="0 0 28 28" version="1.1" xmlns="http://www.w3.org/2000/svg" xmlns:xlink="http://www.w3.org/1999/xlink" xml:space="preserve" xmlns:serif="http://www.serif.com/" style="fill-rule:evenodd;clip-rule:evenodd;stroke-linejoin:round;stroke-miterlimit:2;">
    <g id="FolderIcon" transform="matrix(0.948902,0,0,0.986802,-4.97851,-5.73603)">
        <path d="M11.894,11.893C11.248,11.893 10.63,12.15 10.174,12.606C9.718,13.062 9.462,13.68 9.462,14.325L9.462,25.675C9.462,26.32 9.718,26.938 10.174,27.394C10.63,27.85 11.248,28.107 11.894,28.107L28.107,28.107C28.753,28.107 29.371,27.85 29.828,27.394C30.283,26.938 30.539,26.319 30.539,25.675L30.539,16.757C30.539,15.414 29.45,14.325 28.107,14.325L20.657,14.325C20.236,14.325 19.831,14.162 19.528,13.868C19.154,13.505 18.624,12.992 18.199,12.579C17.746,12.139 17.138,11.893 16.506,11.893L11.894,11.893ZM12.26,13.868L16.664,13.868C16.865,13.868 17.059,13.946 17.203,14.084L18.472,15.303C19.05,15.857 19.823,16.168 20.627,16.168L27.74,16.168C28.168,16.168 28.514,16.511 28.514,16.934L28.515,25.365C28.515,25.568 28.434,25.764 28.289,25.907C28.143,26.051 27.947,26.132 27.741,26.132L12.26,26.132C12.055,26.132 11.858,26.051 11.713,25.907C11.567,25.764 11.486,25.568 11.486,25.365L11.486,14.635C11.486,14.432 11.567,14.236 11.713,14.093C11.858,13.949 12.055,13.868 12.26,13.868Z" style="fill:rgb(235,235,235);"/>
    </g>
</svg>
