<?xml version="1.0" encoding="UTF-8" standalone="no"?>
<!DOCTYPE svg PUBLIC "-//W3C//DTD SVG 1.1//EN" "http://www.w3.org/Graphics/SVG/1.1/DTD/svg11.dtd">
<svg width="100%" height="100%" viewBox="0 0 40 40" version="1.1" xmlns="http://www.w3.org/2000/svg" xmlns:xlink="http://www.w3.org/1999/xlink" xml:space="preserve" xmlns:serif="http://www.serif.com/" style="fill-rule:evenodd;clip-rule:evenodd;stroke-linejoin:round;stroke-miterlimit:2;">
    <g transform="matrix(1.98466,0,0,1.98466,6.46758,8.19582)">
        <path id="Wrench" d="M10.576,11.108C10.576,11.108 7.344,7.876 6.298,6.83C6.114,6.646 5.83,6.605 5.602,6.731C5.136,6.984 4.611,7.115 4.076,7.115C2.862,7.131 1.753,6.41 1.276,5.294C2.158,5.294 3.991,5.303 3.991,5.303C4.742,5.222 5.318,4.578 5.314,3.823C5.351,3.074 4.797,2.414 4.053,2.323L1.345,2.323C1.781,1.212 2.876,0.491 4.069,0.532C5.875,0.533 7.36,2.019 7.36,3.826C7.36,3.947 7.354,4.069 7.34,4.19C7.307,4.497 7.414,4.802 7.632,5.02C8.773,6.166 12.146,9.539 12.146,9.539C12.433,9.826 12.433,10.298 12.146,10.585L11.623,11.108C11.336,11.394 10.864,11.394 10.577,11.108L10.576,11.108Z" style="fill:rgb(235,235,235);fill-rule:nonzero;"/>
    </g>
</svg>
