<?xml version="1.0" encoding="UTF-8" standalone="no"?>
<!DOCTYPE svg PUBLIC "-//W3C//DTD SVG 1.1//EN" "http://www.w3.org/Graphics/SVG/1.1/DTD/svg11.dtd">
<svg width="100%" height="100%" viewBox="0 0 40 40" version="1.1" xmlns="http://www.w3.org/2000/svg" xmlns:xlink="http://www.w3.org/1999/xlink" xml:space="preserve" xmlns:serif="http://www.serif.com/" style="fill-rule:evenodd;clip-rule:evenodd;stroke-linejoin:round;stroke-miterlimit:2;">
    <g transform="matrix(1.23047,0,0,1.23524,-7.22653,-6.19441)">
        <path d="M14.03,20.915C14.03,20.11 14.352,19.339 14.924,18.772C16.394,17.315 19.324,14.413 20.966,12.786C21.621,12.137 22.678,12.139 23.331,12.792C24.971,14.433 27.905,17.367 29.37,18.832C29.936,19.397 30.254,20.165 30.254,20.965L30.224,28.435C30.224,28.879 30.047,29.306 29.732,29.62C29.418,29.934 28.992,30.111 28.548,30.111L15.676,30.111C14.75,30.111 14,29.361 14,28.435L14.03,20.915ZM28.522,27.044C28.522,27.823 27.891,28.453 27.113,28.453L17.111,28.453C16.332,28.453 15.702,27.823 15.702,27.044L15.732,21.8C15.732,20.96 16.066,20.154 16.66,19.56C17.854,18.365 19.919,16.301 21.146,15.074C21.387,14.833 21.693,14.699 22.006,14.668C22.41,14.63 22.829,14.764 23.138,15.074C24.365,16.3 26.43,18.365 27.624,19.56C28.218,20.154 28.552,20.96 28.552,21.8L28.522,27.044Z" style="fill:rgb(235,235,235);"/>
    </g>
</svg>
